<svg width="100" height="100" viewBox="0 0 100 100" fill="none" xmlns="http://www.w3.org/2000/svg">
<rect width="100" height="100" fill="black"/>
<path d="M80 35C80 51.5685 66.5685 65 50 65C33.4315 65 20 51.5685 20 35C20 18.4315 33.4315 5 50 5C66.5685 5 80 18.4315 80 35Z" fill="white"/>
<path d="M50 95L24.0192 50L75.9808 50L50 95Z" fill="white"/>
<path d="M23 35C23 35 32.9 23 50 23C67.1 23 77 35 77 35" stroke="black"/>
<path fill-rule="evenodd" clip-rule="evenodd" d="M23.1899 35C22.8515 34.7129 23.0685 34.7125 23.0685 34.7125L23.0691 34.7118L23.0709 34.7097L23.0772 34.7023L23.1006 34.6752C23.1209 34.6518 23.1507 34.6178 23.1899 34.5738C23.2682 34.486 23.3842 34.3586 23.5372 34.1973C23.843 33.8746 24.2969 33.4161 24.8936 32.867C26.0868 31.7691 27.8526 30.3077 30.15 28.8469C34.7445 25.9253 41.4743 23 50 23C58.5258 23 65.2556 25.9253 69.8501 28.8469C72.1475 30.3077 73.9133 31.7691 75.1065 32.867C75.7032 33.4161 76.157 33.8746 76.4629 34.1973C76.6159 34.3586 76.7318 34.486 76.8102 34.5738C76.8494 34.6178 76.8792 34.6518 76.8995 34.6752L76.9228 34.7023L76.9292 34.7097L76.9316 34.7125C76.9316 34.7125 77.1484 34.7129 76.8101 35C77.1484 35.2871 76.9316 35.2875 76.9316 35.2875L76.9292 35.2903L76.9228 35.2977L76.8995 35.3248C76.8792 35.3482 76.8494 35.3822 76.8102 35.4262C76.7318 35.514 76.6159 35.6414 76.4629 35.8027C76.157 36.1254 75.7032 36.5839 75.1065 37.133C73.9133 38.2309 72.1475 39.6923 69.8501 41.1531C65.2556 44.0747 58.5258 47 50 47C41.4743 47 34.7445 44.0747 30.15 41.1531C27.8526 39.6923 26.0868 38.2309 24.8936 37.133C24.2969 36.5839 23.843 36.1254 23.5372 35.8027C23.3842 35.6414 23.2682 35.514 23.1899 35.4261C23.1507 35.3822 23.1209 35.3482 23.1006 35.3248L23.0773 35.2977L23.0709 35.2903L23.0685 35.2875C23.0685 35.2875 22.8515 35.2871 23.1899 35Z" fill="black"/>
<circle cx="50" cy="35" r="9" fill="white"/>
<circle cx="50" cy="35" r="3" fill="black"/>
</svg>
