<svg width="1000" height="1000" viewBox="0 0 1000 1000" fill="none" xmlns="http://www.w3.org/2000/svg">
<rect width="1000" height="1000" fill="black"/>
<path d="M800 350C800 515.685 665.685 650 500 650C334.315 650 200 515.685 200 350C200 184.315 334.315 50 500 50C665.685 50 800 184.315 800 350Z" fill="white"/>
<path d="M500 950L240.192 500L759.808 500L500 950Z" fill="white"/>
<path d="M230 350C230 350 329 230 500 230C671 230 770 350 770 350" stroke="black"/>
<path fill-rule="evenodd" clip-rule="evenodd" d="M231.899 350C228.515 347.129 230.685 347.125 230.685 347.125L230.691 347.118L230.709 347.097L230.772 347.023L231.006 346.752C231.209 346.518 231.507 346.178 231.899 345.738C232.682 344.86 233.842 343.586 235.372 341.973C238.43 338.746 242.969 334.161 248.936 328.67C260.868 317.691 278.526 303.077 301.5 288.469C347.445 259.253 414.743 230 500 230C585.258 230 652.556 259.253 698.501 288.469C721.475 303.077 739.133 317.691 751.065 328.67C757.032 334.161 761.57 338.746 764.629 341.973C766.159 343.586 767.318 344.86 768.102 345.738C768.494 346.178 768.792 346.518 768.995 346.752L769.228 347.023L769.292 347.097L769.315 347.125C769.315 347.125 771.484 347.129 768.101 350C771.484 352.871 769.315 352.875 769.315 352.875L769.292 352.903L769.228 352.977L768.995 353.248C768.792 353.482 768.494 353.822 768.102 354.262C767.318 355.14 766.159 356.414 764.629 358.027C761.57 361.254 757.032 365.839 751.065 371.33C739.133 382.309 721.475 396.923 698.501 411.531C652.556 440.747 585.258 470 500 470C414.743 470 347.445 440.747 301.5 411.531C278.526 396.923 260.868 382.309 248.936 371.33C242.969 365.839 238.43 361.254 235.372 358.027C233.842 356.414 232.682 355.14 231.899 354.261C231.507 353.822 231.209 353.482 231.006 353.248L230.773 352.977L230.709 352.903L230.685 352.875C230.685 352.875 228.515 352.871 231.899 350Z" fill="black"/>
<circle cx="500" cy="350" r="90" fill="white"/>
<circle cx="500" cy="350" r="30" fill="black"/>
</svg>
