<?xml version="1.0" encoding="utf-8"?>
<!-- Generator: Adobe Illustrator 24.2.3, SVG Export Plug-In . SVG Version: 6.00 Build 0)  -->
<svg version="1.1" id="Layer_1" xmlns="http://www.w3.org/2000/svg" xmlns:xlink="http://www.w3.org/1999/xlink" x="0px" y="0px"
	 viewBox="0 0 178 160.9" style="enable-background:new 0 0 178 160.9;" xml:space="preserve">
<style type="text/css">
	.st0{fill:#FFFFFF;}
</style>
<g id="Navagation_Bar">
	<g id="Logos">
		<path class="st0" d="M160.8,1.2h17.1c0,1,0.1,2.1,0.1,3.1c0,45.3,0,90.6,0,135.9c0,3.5-0.2,7-0.8,10.4c-1,6.1-4.4,9.5-10.8,10
			c-6.7,0.5-13.5,0.5-20.2,0c-6.8-0.6-10.2-4.3-11-10.8c-0.4-2.9-0.6-5.9-0.6-8.8c0-45.7,0-91.4,0-137.1V1.2h18.4v3.5
			c0,44.2,0,88.3,0,132.4c0,1.4,0,2.7,0,4.1c0,2.6,1.6,3.7,4.1,3.6c2.5-0.1,3.7-1.2,3.7-3.7c0-1.5,0-2.9,0-4.4
			c0-43.9,0-87.7,0-131.6L160.8,1.2z"/>
		<path class="st0" d="M78.9,63.4h-17c0-1.3,0-2.4,0-3.6c0-13,0-26,0-39c0-1.8,0-3.7-2.6-4.3c-3.3-0.7-5.1,0.5-5.3,3.7
			c0,1,0,1.9,0,2.9c0,38.3,0,76.6,0,115c0,1.1,0,2.1,0,3.2c0.1,2.5,1.4,3.7,4,3.7c2.7,0,3.8-1.3,3.8-3.8c0-15.5,0-31,0-46.6
			c0-1.1,0-2.3,0-3.6h16.9c0,1,0.1,1.8,0.1,2.7c0,16,0,32,0,48c0,2.9-0.2,5.8-0.6,8.6c-0.8,6.2-4.3,9.9-10.7,10.3
			c-6.7,0.5-13.5,0.5-20.2,0c-6.8-0.6-10.1-4.3-11-10.8c-0.3-2.1-0.5-4.2-0.6-6.4c0-41.9,0-83.8,0-125.7c0-2.1,0.2-4.3,0.6-6.4
			c1-6.9,4.8-10.6,12.9-11C55.3-0.2,61.5,0,67.7,0.5c5.4,0.1,10,4.2,10.5,9.6c0.4,2.1,0.6,4.2,0.7,6.4C78.9,32,78.9,47.5,78.9,63.4z
			"/>
		<path class="st0" d="M130.5,160h-18.4l-1.5-21.3h-10.3L99,159.9H82.6L94,1.2h25.1L130.5,160z M105.6,25.4
			c-1.3,28.8-2.7,67.8-4,96.5h8C108.2,93,107,54,105.6,25.4z"/>
		<path class="st0" d="M18.1,143.7h13.5v16.2H0V1.2h18.1C18.1,1.2,18.1,143.7,18.1,143.7z"/>
	</g>
</g>
</svg>
