<svg width="1361" height="337" viewBox="0 0 1361 337" fill="none" xmlns="http://www.w3.org/2000/svg">
<g filter="url(#filter0_f)">
<path d="M685.323 155.693C685.323 169.593 674.237 180.86 660.562 180.86C646.887 180.86 635.801 169.593 635.801 155.693C635.801 141.794 646.887 130.526 660.562 130.526C674.237 130.526 685.323 141.794 685.323 155.693Z" fill="white"/>
<path d="M660.562 206.027L639.118 168.277L682.006 168.277L660.562 206.027Z" fill="white"/>
</g>
<g filter="url(#filter1_f)">
<path d="M776.251 155.693C776.251 169.593 764.983 180.86 751.084 180.86C737.184 180.86 725.917 169.593 725.917 155.693C725.917 141.794 737.184 130.526 751.084 130.526C764.983 130.526 776.251 141.794 776.251 155.693Z" fill="white"/>
<path d="M751.084 206.027L729.288 168.277L772.879 168.277L751.084 206.027Z" fill="white"/>
</g>
<g filter="url(#filter2_f)">
<path d="M867.177 155.693C867.177 169.593 855.909 180.86 842.009 180.86C828.11 180.86 816.842 169.593 816.842 155.693C816.842 141.794 828.11 130.526 842.009 130.526C855.909 130.526 867.177 141.794 867.177 155.693Z" fill="white"/>
<path d="M842.009 206.027L820.214 168.277L863.805 168.277L842.009 206.027Z" fill="white"/>
</g>
<g filter="url(#filter3_f)">
<path d="M504.283 155.693C504.283 169.593 493.015 180.86 479.115 180.86C465.216 180.86 453.948 169.593 453.948 155.693C453.948 141.794 465.216 130.526 479.115 130.526C493.015 130.526 504.283 141.794 504.283 155.693Z" fill="white"/>
<path d="M479.115 206.027L457.32 168.277L500.911 168.277L479.115 206.027Z" fill="white"/>
</g>
<g filter="url(#filter4_f)">
<path d="M595.209 155.693C595.209 169.593 583.941 180.86 570.042 180.86C556.142 180.86 544.875 169.593 544.875 155.693C544.875 141.794 556.142 130.526 570.042 130.526C583.941 130.526 595.209 141.794 595.209 155.693Z" fill="white"/>
<path d="M570.042 206.027L548.246 168.277L591.837 168.277L570.042 206.027Z" fill="white"/>
</g>
<g filter="url(#filter5_f)">
<path d="M1139.15 155.693C1139.15 169.593 1128.06 180.861 1114.38 180.861C1100.71 180.861 1089.62 169.593 1089.62 155.693C1089.62 141.794 1100.71 130.526 1114.38 130.526C1128.06 130.526 1139.15 141.794 1139.15 155.693Z" fill="white"/>
<path d="M1114.38 206.028L1092.94 168.277L1135.83 168.277L1114.38 206.028Z" fill="white"/>
</g>
<g filter="url(#filter6_f)">
<path d="M1230.07 155.693C1230.07 169.593 1218.8 180.86 1204.9 180.86C1191 180.86 1179.74 169.593 1179.74 155.693C1179.74 141.794 1191 130.526 1204.9 130.526C1218.8 130.526 1230.07 141.794 1230.07 155.693Z" fill="white"/>
<path d="M1204.9 206.027L1183.11 168.277L1226.7 168.277L1204.9 206.027Z" fill="white"/>
</g>
<g filter="url(#filter7_f)">
<path d="M958.103 155.693C958.103 169.593 946.836 180.861 932.936 180.861C919.037 180.861 907.769 169.593 907.769 155.693C907.769 141.794 919.037 130.526 932.936 130.526C946.836 130.526 958.103 141.794 958.103 155.693Z" fill="white"/>
<path d="M932.936 206.028L911.141 168.277L954.732 168.277L932.936 206.028Z" fill="white"/>
</g>
<g filter="url(#filter8_f)">
<path d="M1049.03 155.693C1049.03 169.593 1037.76 180.86 1023.86 180.86C1009.96 180.86 998.696 169.593 998.696 155.693C998.696 141.794 1009.96 130.526 1023.86 130.526C1037.76 130.526 1049.03 141.794 1049.03 155.693Z" fill="white"/>
<path d="M1023.86 206.027L1002.07 168.277L1045.66 168.277L1023.86 206.027Z" fill="white"/>
</g>
<g filter="url(#filter9_f)">
<path d="M231.502 155.693C231.502 169.593 220.416 180.86 206.741 180.86C193.065 180.86 181.979 169.593 181.979 155.693C181.979 141.794 193.065 130.526 206.741 130.526C220.416 130.526 231.502 141.794 231.502 155.693Z" fill="white"/>
<path d="M206.741 206.027L185.297 168.277L228.185 168.277L206.741 206.027Z" fill="white"/>
</g>
<g filter="url(#filter10_f)">
<path d="M322.429 155.693C322.429 169.593 311.161 180.86 297.262 180.86C283.362 180.86 272.095 169.593 272.095 155.693C272.095 141.794 283.362 130.526 297.262 130.526C311.161 130.526 322.429 141.794 322.429 155.693Z" fill="white"/>
<path d="M297.262 206.027L275.466 168.277L319.057 168.277L297.262 206.027Z" fill="white"/>
</g>
<g filter="url(#filter11_f)">
<path d="M413.355 155.693C413.355 169.593 402.088 180.861 388.188 180.861C374.289 180.861 363.021 169.593 363.021 155.693C363.021 141.794 374.289 130.526 388.188 130.526C402.088 130.526 413.355 141.794 413.355 155.693Z" fill="white"/>
<path d="M388.188 206.028L366.393 168.277L409.984 168.277L388.188 206.028Z" fill="white"/>
</g>
<path d="M50.4604 155.693C50.4604 169.593 39.1926 180.861 25.2932 180.861C11.3937 180.861 0.125977 169.593 0.125977 155.693C0.125977 141.794 11.3937 130.526 25.2932 130.526C39.1926 130.526 50.4604 141.794 50.4604 155.693Z" fill="white"/>
<path d="M25.2932 206.028L3.49774 168.277L47.0886 168.277L25.2932 206.028Z" fill="white"/>
<g filter="url(#filter12_f)">
<path d="M141.387 155.693C141.387 169.593 130.12 180.861 116.22 180.861C102.321 180.861 91.0529 169.593 91.0529 155.693C91.0529 141.794 102.321 130.526 116.22 130.526C130.12 130.526 141.387 141.794 141.387 155.693Z" fill="white"/>
<path d="M116.22 206.028L94.4246 168.277L138.016 168.277L116.22 206.028Z" fill="white"/>
</g>
<defs>
<filter id="filter0_f" x="565.801" y="60.5259" width="189.523" height="215.502" filterUnits="userSpaceOnUse" color-interpolation-filters="sRGB">
<feFlood flood-opacity="0" result="BackgroundImageFix"/>
<feBlend mode="normal" in="SourceGraphic" in2="BackgroundImageFix" result="shape"/>
<feGaussianBlur stdDeviation="35" result="effect1_foregroundBlur"/>
</filter>
<filter id="filter1_f" x="645.917" y="50.5259" width="210.334" height="235.502" filterUnits="userSpaceOnUse" color-interpolation-filters="sRGB">
<feFlood flood-opacity="0" result="BackgroundImageFix"/>
<feBlend mode="normal" in="SourceGraphic" in2="BackgroundImageFix" result="shape"/>
<feGaussianBlur stdDeviation="40" result="effect1_foregroundBlur"/>
</filter>
<filter id="filter2_f" x="726.842" y="40.5259" width="230.334" height="255.502" filterUnits="userSpaceOnUse" color-interpolation-filters="sRGB">
<feFlood flood-opacity="0" result="BackgroundImageFix"/>
<feBlend mode="normal" in="SourceGraphic" in2="BackgroundImageFix" result="shape"/>
<feGaussianBlur stdDeviation="45" result="effect1_foregroundBlur"/>
</filter>
<filter id="filter3_f" x="403.948" y="80.5259" width="150.334" height="175.502" filterUnits="userSpaceOnUse" color-interpolation-filters="sRGB">
<feFlood flood-opacity="0" result="BackgroundImageFix"/>
<feBlend mode="normal" in="SourceGraphic" in2="BackgroundImageFix" result="shape"/>
<feGaussianBlur stdDeviation="25" result="effect1_foregroundBlur"/>
</filter>
<filter id="filter4_f" x="484.875" y="70.5259" width="170.334" height="195.502" filterUnits="userSpaceOnUse" color-interpolation-filters="sRGB">
<feFlood flood-opacity="0" result="BackgroundImageFix"/>
<feBlend mode="normal" in="SourceGraphic" in2="BackgroundImageFix" result="shape"/>
<feGaussianBlur stdDeviation="30" result="effect1_foregroundBlur"/>
</filter>
<filter id="filter5_f" x="969.623" y="10.5261" width="289.523" height="315.502" filterUnits="userSpaceOnUse" color-interpolation-filters="sRGB">
<feFlood flood-opacity="0" result="BackgroundImageFix"/>
<feBlend mode="normal" in="SourceGraphic" in2="BackgroundImageFix" result="shape"/>
<feGaussianBlur stdDeviation="60" result="effect1_foregroundBlur"/>
</filter>
<filter id="filter6_f" x="1049.74" y="0.525879" width="310.334" height="335.502" filterUnits="userSpaceOnUse" color-interpolation-filters="sRGB">
<feFlood flood-opacity="0" result="BackgroundImageFix"/>
<feBlend mode="normal" in="SourceGraphic" in2="BackgroundImageFix" result="shape"/>
<feGaussianBlur stdDeviation="65" result="effect1_foregroundBlur"/>
</filter>
<filter id="filter7_f" x="807.769" y="30.5261" width="250.334" height="275.502" filterUnits="userSpaceOnUse" color-interpolation-filters="sRGB">
<feFlood flood-opacity="0" result="BackgroundImageFix"/>
<feBlend mode="normal" in="SourceGraphic" in2="BackgroundImageFix" result="shape"/>
<feGaussianBlur stdDeviation="50" result="effect1_foregroundBlur"/>
</filter>
<filter id="filter8_f" x="888.696" y="20.5259" width="270.334" height="295.502" filterUnits="userSpaceOnUse" color-interpolation-filters="sRGB">
<feFlood flood-opacity="0" result="BackgroundImageFix"/>
<feBlend mode="normal" in="SourceGraphic" in2="BackgroundImageFix" result="shape"/>
<feGaussianBlur stdDeviation="55" result="effect1_foregroundBlur"/>
</filter>
<filter id="filter9_f" x="161.979" y="110.526" width="89.5226" height="115.502" filterUnits="userSpaceOnUse" color-interpolation-filters="sRGB">
<feFlood flood-opacity="0" result="BackgroundImageFix"/>
<feBlend mode="normal" in="SourceGraphic" in2="BackgroundImageFix" result="shape"/>
<feGaussianBlur stdDeviation="10" result="effect1_foregroundBlur"/>
</filter>
<filter id="filter10_f" x="242.095" y="100.526" width="110.334" height="135.502" filterUnits="userSpaceOnUse" color-interpolation-filters="sRGB">
<feFlood flood-opacity="0" result="BackgroundImageFix"/>
<feBlend mode="normal" in="SourceGraphic" in2="BackgroundImageFix" result="shape"/>
<feGaussianBlur stdDeviation="15" result="effect1_foregroundBlur"/>
</filter>
<filter id="filter11_f" x="323.021" y="90.5261" width="130.334" height="155.502" filterUnits="userSpaceOnUse" color-interpolation-filters="sRGB">
<feFlood flood-opacity="0" result="BackgroundImageFix"/>
<feBlend mode="normal" in="SourceGraphic" in2="BackgroundImageFix" result="shape"/>
<feGaussianBlur stdDeviation="20" result="effect1_foregroundBlur"/>
</filter>
<filter id="filter12_f" x="81.0529" y="120.526" width="70.3344" height="95.5016" filterUnits="userSpaceOnUse" color-interpolation-filters="sRGB">
<feFlood flood-opacity="0" result="BackgroundImageFix"/>
<feBlend mode="normal" in="SourceGraphic" in2="BackgroundImageFix" result="shape"/>
<feGaussianBlur stdDeviation="5" result="effect1_foregroundBlur"/>
</filter>
</defs>
</svg>
